<svg version="1.1" id="Layer_1" xmlns="http://www.w3.org/2000/svg" xmlns:xlink="http://www.w3.org/1999/xlink" x="0px" y="0px"
	 width="100%" viewBox="0 0 500 500" enable-background="new 0 0 500 500" xml:space="preserve">
<path fill="#000000" opacity="1.000000" stroke="none" 
	d="
M327.000000,501.000000 
	C218.000031,501.000000 109.500053,501.000000 1.000058,501.000000 
	C1.000039,334.333405 1.000039,167.666794 1.000019,1.000148 
	C167.666565,1.000098 334.333130,1.000098 500.999756,1.000049 
	C500.999847,167.666519 500.999847,334.333038 500.999939,500.999786 
	C443.166656,501.000000 385.333344,501.000000 327.000000,501.000000 
M231.109726,277.018555 
	C216.872223,277.830078 202.634735,278.641602 188.397232,279.453125 
	C188.095795,280.020538 187.794357,280.587952 187.492920,281.155396 
	C192.237106,287.514404 196.193832,294.714233 201.893845,300.052704 
	C212.844559,310.308868 225.733322,317.682892 241.041046,319.475372 
	C250.571182,320.591278 260.096466,320.492157 269.472626,317.820160 
	C280.436981,314.695526 290.394684,309.453613 298.465210,301.613464 
	C304.110229,296.129578 308.285675,289.118774 312.924469,282.651520 
	C313.177368,282.298920 311.778076,279.898041 310.931335,279.757782 
	C304.682129,278.722595 298.398132,277.710785 292.085388,277.296844 
	C285.422119,276.859894 278.714874,277.092804 271.627411,276.246521 
	C258.956604,276.170624 246.285812,276.084717 233.614868,276.054047 
	C233.088593,276.052765 232.561066,276.567902 231.109726,277.018555 
M206.882523,218.949295 
	C222.988968,217.970459 239.087601,216.815628 255.205780,216.101501 
	C261.437134,215.825424 267.712769,216.548431 274.810516,216.990952 
	C275.723511,217.311600 276.615417,217.818741 277.552704,217.924652 
	C289.759521,219.304031 301.970764,220.645645 314.185364,221.954727 
	C319.707245,222.546524 320.675995,221.229950 318.505951,216.051270 
	C312.698608,202.192642 303.533478,191.067825 290.843231,183.029922 
	C281.209381,176.927933 270.835144,173.182327 259.282257,171.767715 
	C249.752747,170.600861 240.439041,170.581772 231.530212,173.399277 
	C213.390701,179.136093 197.883850,188.880997 188.377411,206.166336 
	C185.724060,210.990829 183.524429,216.064835 181.116653,221.024384 
	C181.559067,221.486450 182.001495,221.948517 182.443909,222.410583 
	C190.306808,221.210129 198.169693,220.009674 206.882523,218.949295 
M267.887756,262.936523 
	C272.674133,263.236908 277.475769,263.386353 282.243958,263.867126 
	C294.579132,265.110840 307.017639,265.832153 319.199158,267.983704 
	C339.143433,271.506317 359.050323,275.453156 378.712402,280.282074 
	C390.642639,283.212097 402.335510,287.540192 413.671692,292.335602 
	C424.877258,297.075806 435.536469,303.123413 446.363525,308.736115 
	C451.931976,311.622803 457.343994,314.811340 462.826721,317.863495 
	C463.248535,317.427124 463.670380,316.990723 464.092194,316.554352 
	C462.965454,314.979004 462.068634,313.154083 460.674103,311.869446 
	C452.548309,304.384247 444.375244,296.946930 436.085876,289.643494 
	C424.307831,279.266357 411.436432,270.364655 397.271027,263.657043 
	C382.544342,256.683655 367.623413,250.020081 352.405701,244.223007 
	C343.701965,240.907394 334.279602,239.392807 325.103455,237.428574 
	C317.047699,235.704147 308.927795,234.120499 300.756561,233.136414 
	C291.621613,232.036240 282.394531,231.711990 273.212769,230.983871 
	C270.416046,230.762100 267.636658,230.321472 264.438232,229.243362 
	C257.006378,229.155869 249.574356,229.006027 242.142868,229.028946 
	C240.483368,229.034058 238.825745,229.645874 236.294937,229.981430 
	C233.171677,230.306335 230.055435,230.760513 226.923767,230.930771 
	C219.024796,231.360214 210.955490,230.772202 203.247498,232.187653 
	C183.158859,235.876663 162.797836,238.680206 143.774155,246.803223 
	C129.619522,252.847198 115.140030,258.225616 101.369362,265.040436 
	C92.044510,269.655090 83.493820,275.961884 74.984940,282.053894 
	C69.065636,286.291840 63.664669,291.296997 58.286678,296.236542 
	C51.930405,302.074554 45.774952,308.139008 39.727814,314.297180 
	C38.842678,315.198547 39.038773,317.161652 38.734585,318.633514 
	C39.297184,318.909729 39.859787,319.185974 40.422386,319.462219 
	C41.052113,318.465088 41.442879,317.022156 42.347271,316.537384 
	C56.748199,308.817596 70.853012,300.402740 85.759651,293.805603 
	C103.716759,285.858459 122.273224,279.213379 141.721680,275.529388 
	C157.791138,272.485474 173.721771,268.472534 189.904739,266.331116 
	C205.796555,264.228241 221.928925,263.943451 238.811905,262.943573 
	C241.203918,262.614960 243.595947,262.286316 246.609009,261.881134 
	C246.817551,261.876282 247.026077,261.871460 247.301224,262.091400 
	C247.301224,262.091400 247.591721,262.148285 247.591721,262.148285 
	C247.591721,262.148285 247.739380,261.858154 248.404083,261.783203 
	C248.626999,261.778748 248.849930,261.774261 249.503967,262.290558 
	C255.348953,262.485199 261.193939,262.679810 267.887756,262.936523 
M176.728287,129.089447 
	C173.574509,131.637329 170.234131,133.988586 167.302521,136.770584 
	C159.057770,144.594559 150.705307,152.334793 142.900513,160.585922 
	C129.896149,174.334000 122.763084,191.451889 117.679253,209.237610 
	C114.846420,219.148239 114.324921,229.723160 112.835907,240.009430 
	C112.663971,241.197235 112.968040,242.453949 113.051414,243.678726 
	C114.294907,243.518967 115.627319,243.593704 116.767456,243.161377 
	C124.179054,240.350937 131.607651,237.569901 138.910629,234.494156 
	C143.394318,232.605774 148.231384,232.513687 149.810577,225.234497 
	C154.133118,205.310211 163.561386,187.910690 178.165070,173.014084 
	C193.957748,156.904663 212.847412,147.312057 234.483307,143.365524 
	C250.406982,140.460953 266.413788,141.727249 282.147034,146.808746 
	C305.065887,154.210968 322.726227,168.292328 336.242859,187.751663 
	C344.563232,199.730164 349.664917,213.348465 353.486725,227.346436 
	C354.439819,230.837311 356.298615,232.096863 359.237427,233.182373 
	C368.065186,236.443069 376.808594,239.931656 385.626038,243.221115 
	C387.020142,243.741211 388.627319,243.690201 389.860901,243.864426 
	C390.300171,243.111023 390.459534,242.966873 390.452759,242.831070 
	C389.069855,215.207672 380.540039,190.079468 364.420868,167.521378 
	C354.023987,152.971359 341.523376,140.557373 326.583008,130.832932 
	C319.569641,126.268044 311.848511,122.712784 304.226776,119.177124 
	C290.107666,112.627380 275.154083,109.384468 259.589325,109.101006 
	C252.426559,108.970551 245.188385,108.364830 238.113861,109.146355 
	C228.797882,110.175491 219.259903,111.324867 210.453293,114.303001 
	C199.101913,118.141701 188.380020,123.841827 176.728287,129.089447 
M201.785065,376.897339 
	C214.687698,381.550720 227.739410,385.000427 241.622650,385.859253 
	C264.128998,387.251526 285.793518,384.053009 306.157074,374.751068 
	C326.089783,365.645935 343.777863,353.202942 357.625946,335.665253 
	C366.745422,324.116089 374.379211,311.900330 379.770966,298.195892 
	C381.038483,294.974182 379.944336,293.767090 377.397522,293.107727 
	C368.151428,290.713959 358.881836,288.397827 349.558594,286.334839 
	C348.590393,286.120636 346.714355,287.514862 346.099030,288.627167 
	C343.258606,293.761719 341.141418,299.335205 337.977936,304.244141 
	C331.185760,314.783875 322.787720,324.049164 312.580505,331.356415 
	C306.076202,336.012817 299.288452,340.690948 291.937988,343.640045 
	C283.147247,347.166931 273.695740,349.198883 264.393280,351.259003 
	C253.446686,353.683258 242.218842,353.447601 231.454590,350.736847 
	C221.204437,348.155518 211.259781,344.616943 201.768494,339.324921 
	C186.047226,330.559265 173.629639,318.815063 164.143280,303.762604 
	C161.343506,299.320068 158.941360,294.615814 156.537918,289.938538 
	C154.953293,286.854797 153.078781,285.532257 149.385864,286.623322 
	C141.782761,288.869537 134.071381,290.760925 126.369766,292.657043 
	C122.605354,293.583862 121.270454,295.754669 122.847176,299.212555 
	C125.963295,306.046539 128.663208,313.194122 132.708008,319.454254 
	C140.448486,331.434143 149.078079,342.623169 160.445190,351.797699 
	C172.993744,361.925781 185.980820,370.900024 201.785065,376.897339 
z"/>
<path fill="#33342F" opacity="1.000000" stroke="none" 
	d="
M177.057648,128.914856 
	C188.380020,123.841827 199.101913,118.141701 210.453293,114.303001 
	C219.259903,111.324867 228.797882,110.175491 238.113861,109.146355 
	C245.188385,108.364830 252.426559,108.970551 259.589325,109.101006 
	C275.154083,109.384468 290.107666,112.627380 304.226776,119.177124 
	C311.848511,122.712784 319.569641,126.268044 326.583008,130.832932 
	C341.523376,140.557373 354.023987,152.971359 364.420868,167.521378 
	C380.540039,190.079468 389.069855,215.207672 390.452759,242.831070 
	C390.459534,242.966873 390.300171,243.111023 389.860901,243.864426 
	C388.627319,243.690201 387.020142,243.741211 385.626038,243.221115 
	C376.808594,239.931656 368.065186,236.443069 359.237427,233.182373 
	C356.298615,232.096863 354.439819,230.837311 353.486725,227.346436 
	C349.664917,213.348465 344.563232,199.730164 336.242859,187.751663 
	C322.726227,168.292328 305.065887,154.210968 282.147034,146.808746 
	C266.413788,141.727249 250.406982,140.460953 234.483307,143.365524 
	C212.847412,147.312057 193.957748,156.904663 178.165070,173.014084 
	C163.561386,187.910690 154.133118,205.310211 149.810577,225.234497 
	C148.231384,232.513687 143.394318,232.605774 138.910629,234.494156 
	C131.607651,237.569901 124.179054,240.350937 116.767456,243.161377 
	C115.627319,243.593704 114.294907,243.518967 113.051414,243.678711 
	C112.968040,242.453949 112.663971,241.197235 112.835907,240.009430 
	C114.324921,229.723160 114.846420,219.148239 117.679253,209.237610 
	C122.763084,191.451889 129.896149,174.334000 142.900513,160.585922 
	C150.705307,152.334793 159.057770,144.594559 167.302521,136.770584 
	C170.234131,133.988586 173.574509,131.637329 177.057648,128.914856 
z"/>
<path fill="#33342E" opacity="1.000000" stroke="none" 
	d="
M237.955734,262.860779 
	C221.928925,263.943451 205.796555,264.228241 189.904739,266.331116 
	C173.721771,268.472534 157.791138,272.485474 141.721680,275.529388 
	C122.273224,279.213379 103.716759,285.858459 85.759651,293.805603 
	C70.853012,300.402740 56.748199,308.817596 42.347271,316.537384 
	C41.442879,317.022156 41.052113,318.465088 40.422386,319.462219 
	C39.859787,319.185974 39.297184,318.909729 38.734585,318.633514 
	C39.038773,317.161652 38.842678,315.198547 39.727814,314.297180 
	C45.774952,308.139008 51.930405,302.074554 58.286678,296.236542 
	C63.664669,291.296997 69.065636,286.291840 74.984940,282.053894 
	C83.493820,275.961884 92.044510,269.655090 101.369362,265.040436 
	C115.140030,258.225616 129.619522,252.847198 143.774155,246.803223 
	C162.797836,238.680206 183.158859,235.876663 203.247498,232.187653 
	C210.955490,230.772202 219.024796,231.360214 226.923767,230.930771 
	C230.055435,230.760513 233.171677,230.306335 237.188568,229.969421 
	C247.004578,229.965317 255.926956,229.973206 264.849335,229.981079 
	C267.636658,230.321472 270.416046,230.762100 273.212769,230.983871 
	C282.394531,231.711990 291.621613,232.036240 300.756561,233.136414 
	C308.927795,234.120499 317.047699,235.704147 325.103455,237.428574 
	C334.279602,239.392807 343.701965,240.907394 352.405701,244.223007 
	C367.623413,250.020081 382.544342,256.683655 397.271027,263.657043 
	C411.436432,270.364655 424.307831,279.266357 436.085876,289.643494 
	C444.375244,296.946930 452.548309,304.384247 460.674103,311.869446 
	C462.068634,313.154083 462.965454,314.979004 464.092194,316.554352 
	C463.670380,316.990723 463.248535,317.427124 462.826721,317.863495 
	C457.343994,314.811340 451.931976,311.622803 446.363525,308.736115 
	C435.536469,303.123413 424.877258,297.075806 413.671692,292.335602 
	C402.335510,287.540192 390.642639,283.212097 378.712402,280.282074 
	C359.050323,275.453156 339.143433,271.506317 319.199158,267.983704 
	C307.017639,265.832153 294.579132,265.110840 282.243958,263.867126 
	C277.475769,263.386353 272.674133,263.236908 267.272003,262.579773 
	C260.795105,262.071930 254.933990,261.920837 249.072861,261.769745 
	C248.849930,261.774261 248.626999,261.778748 247.946838,261.825714 
	C247.489609,261.868225 247.234604,261.866608 247.234604,261.866608 
	C247.026077,261.871460 246.817551,261.876282 245.977081,261.713440 
	C242.882019,261.984070 240.418869,262.422394 237.955734,262.860779 
z"/>
<path fill="#33342E" opacity="1.000000" stroke="none" 
	d="
M201.456024,376.727478 
	C185.980820,370.900024 172.993744,361.925781 160.445190,351.797699 
	C149.078079,342.623169 140.448486,331.434143 132.708008,319.454254 
	C128.663208,313.194122 125.963295,306.046539 122.847176,299.212555 
	C121.270454,295.754669 122.605354,293.583862 126.369766,292.657043 
	C134.071381,290.760925 141.782761,288.869537 149.385864,286.623322 
	C153.078781,285.532257 154.953293,286.854797 156.537918,289.938538 
	C158.941360,294.615814 161.343506,299.320068 164.143280,303.762604 
	C173.629639,318.815063 186.047226,330.559265 201.768494,339.324921 
	C211.259781,344.616943 221.204437,348.155518 231.454590,350.736847 
	C242.218842,353.447601 253.446686,353.683258 264.393280,351.259003 
	C273.695740,349.198883 283.147247,347.166931 291.937988,343.640045 
	C299.288452,340.690948 306.076202,336.012817 312.580505,331.356415 
	C322.787720,324.049164 331.185760,314.783875 337.977936,304.244141 
	C341.141418,299.335205 343.258606,293.761719 346.099030,288.627167 
	C346.714355,287.514862 348.590393,286.120636 349.558594,286.334839 
	C358.881836,288.397827 368.151428,290.713959 377.397522,293.107727 
	C379.944336,293.767090 381.038483,294.974182 379.770966,298.195892 
	C374.379211,311.900330 366.745422,324.116089 357.625946,335.665253 
	C343.777863,353.202942 326.089783,365.645935 306.157074,374.751068 
	C285.793518,384.053009 264.128998,387.251526 241.622650,385.859253 
	C227.739410,385.000427 214.687698,381.550720 201.456024,376.727478 
z"/>
<path fill="#EAB236" opacity="1.000000" stroke="none" 
	d="
M206.032593,218.809219 
	C198.169693,220.009674 190.306808,221.210129 182.443909,222.410583 
	C182.001495,221.948517 181.559067,221.486450 181.116653,221.024384 
	C183.524429,216.064835 185.724060,210.990829 188.377411,206.166336 
	C197.883850,188.880997 213.390701,179.136093 231.530212,173.399277 
	C240.439041,170.581772 249.752747,170.600861 259.282257,171.767715 
	C270.835144,173.182327 281.209381,176.927933 290.843231,183.029922 
	C303.533478,191.067825 312.698608,202.192642 318.505951,216.051270 
	C320.675995,221.229950 319.707245,222.546524 314.185364,221.954727 
	C301.970764,220.645645 289.759521,219.304031 277.552704,217.924652 
	C276.615417,217.818741 275.723511,217.311600 274.202332,216.576981 
	C272.376404,215.785919 271.152832,215.063065 269.941895,215.083755 
	C252.700226,215.378036 235.454788,215.623535 218.223877,216.253098 
	C214.134445,216.402527 210.095016,217.920654 206.032593,218.809219 
z"/>
<path fill="#61B597" opacity="1.000000" stroke="none" 
	d="
M272.026855,277.033081 
	C278.714874,277.092804 285.422119,276.859894 292.085388,277.296844 
	C298.398132,277.710785 304.682129,278.722595 310.931335,279.757782 
	C311.778076,279.898041 313.177368,282.298920 312.924469,282.651520 
	C308.285675,289.118774 304.110229,296.129578 298.465210,301.613464 
	C290.394684,309.453613 280.436981,314.695526 269.472626,317.820160 
	C260.096466,320.492157 250.571182,320.591278 241.041046,319.475372 
	C225.733322,317.682892 212.844559,310.308868 201.893845,300.052704 
	C196.193832,294.714233 192.237106,287.514404 187.492920,281.155396 
	C187.794357,280.587952 188.095795,280.020538 188.397232,279.453125 
	C202.634735,278.641602 216.872223,277.830078 232.034637,276.957520 
	C245.981979,276.942017 259.004425,276.987549 272.026855,277.033081 
z"/>
<path fill="#D9B564" opacity="1.000000" stroke="none" 
	d="
M206.457550,218.879242 
	C210.095016,217.920654 214.134445,216.402527 218.223877,216.253098 
	C235.454788,215.623535 252.700226,215.378036 269.941895,215.083755 
	C271.152832,215.063065 272.376404,215.785919 273.781189,216.489624 
	C267.712769,216.548431 261.437134,215.825424 255.205780,216.101501 
	C239.087601,216.815628 222.988968,217.970459 206.457550,218.879242 
z"/>
<path fill="#94C2B1" opacity="1.000000" stroke="none" 
	d="
M271.827148,276.639801 
	C259.004425,276.987549 245.981979,276.942017 232.496826,276.869476 
	C232.561066,276.567902 233.088593,276.052765 233.614868,276.054047 
	C246.285812,276.084717 258.956604,276.170624 271.827148,276.639801 
z"/>
<path fill="#23241F" opacity="1.000000" stroke="none" 
	d="
M249.288422,262.030151 
	C254.933990,261.920837 260.795105,262.071930 266.847595,262.548706 
	C261.193939,262.679810 255.348953,262.485199 249.288422,262.030151 
z"/>
<path fill="#8C8C89" opacity="1.000000" stroke="none" 
	d="
M264.643799,229.612228 
	C255.926956,229.973206 247.004578,229.965317 237.624725,229.967896 
	C238.825745,229.645874 240.483368,229.034058 242.142868,229.028946 
	C249.574356,229.006027 257.006378,229.155869 264.643799,229.612228 
z"/>
<path fill="#23241F" opacity="1.000000" stroke="none" 
	d="
M238.383820,262.902161 
	C240.418869,262.422394 242.882019,261.984070 245.666565,261.751709 
	C243.595947,262.286316 241.203918,262.614960 238.383820,262.902161 
z"/>
<path fill="#23241F" opacity="1.000000" stroke="none" 
	d="
M247.267914,261.979004 
	C247.234604,261.866608 247.489609,261.868225 247.614502,261.863190 
	C247.739380,261.858154 247.591721,262.148285 247.591721,262.148285 
	C247.591721,262.148285 247.301224,262.091400 247.267914,261.979004 
z"/>
</svg>